<svg version="1.1" id="Layer_1" xmlns="http://www.w3.org/2000/svg" xmlns:xlink="http://www.w3.org/1999/xlink" x="0px" y="0px"
	 width="100%" viewBox="0 0 500 500" enable-background="new 0 0 500 500" xml:space="preserve">
<path fill="#000000" opacity="1.000000" stroke="none" 
	d="
M321.000000,501.000000 
	C214.000031,501.000000 107.500053,501.000000 1.000057,501.000000 
	C1.000038,334.333405 1.000038,167.666794 1.000019,1.000147 
	C167.666565,1.000098 334.333130,1.000098 500.999756,1.000049 
	C500.999847,167.666519 500.999847,334.333038 500.999939,500.999786 
	C441.166656,501.000000 381.333344,501.000000 321.000000,501.000000 
M172.769226,312.876892 
	C172.769226,312.876892 172.894928,312.708496 173.460541,312.611084 
	C174.193558,312.045593 174.926575,311.480103 175.850281,310.838379 
	C175.850281,310.838379 175.929337,310.648804 176.590073,310.444397 
	C178.719910,309.414459 180.849747,308.384521 183.815125,307.493744 
	C185.219009,307.456879 186.622894,307.420044 188.671158,307.614532 
	C189.124710,307.660645 189.578262,307.706757 190.137451,307.906738 
	C190.137451,307.906738 190.322754,307.929199 190.757553,308.405731 
	C195.816559,310.349274 198.858170,314.307159 201.278687,319.715179 
	C201.478088,320.202087 201.677505,320.688965 201.784012,321.361084 
	C201.784012,321.361084 202.086945,321.576691 202.099182,321.770111 
	C202.099182,321.770111 202.248199,321.894043 202.315704,322.640808 
	C204.837738,329.322479 207.370773,336.000031 209.879654,342.686646 
	C216.121826,359.323120 222.200485,376.024109 228.737198,392.543915 
	C229.840042,395.331024 232.899643,397.343842 235.161514,399.874939 
	C235.161514,399.874939 235.352036,399.902863 235.836426,400.386841 
	C237.922852,400.816986 240.009277,401.247131 242.923492,401.774048 
	C244.004761,401.583710 245.086044,401.393341 246.430099,401.300720 
	C246.639023,401.276428 246.778992,401.165222 247.586990,400.886108 
	C260.590088,392.310120 273.785004,384.007507 286.531158,375.065338 
	C295.544128,368.742188 296.846893,362.421234 292.907654,352.025360 
	C288.018768,339.123505 283.360382,326.132111 278.298950,313.299072 
	C276.610199,309.017303 277.198120,306.403656 281.157043,303.774719 
	C293.342377,295.683105 305.356140,287.328003 317.319885,278.909454 
	C327.000275,272.097687 330.954590,262.689575 328.319336,251.092422 
	C325.747009,239.772232 322.717499,228.550583 319.639618,217.354141 
	C318.802826,214.310043 319.203003,212.254181 321.910553,210.623108 
	C323.330383,209.767792 324.565674,208.598816 326.004303,207.783249 
	C333.859894,203.330063 338.119873,196.685455 338.605499,187.625610 
	C338.685089,186.140839 338.794617,184.540436 339.399719,183.228439 
	C340.317780,181.237915 341.271271,178.892334 342.928314,177.678711 
	C349.888245,172.581055 357.066040,167.773956 364.257477,163.001190 
	C372.520996,157.516937 376.017487,149.479156 371.522949,142.262909 
	C364.972717,131.746002 357.271667,121.945869 349.861359,111.325790 
	C348.562164,109.568222 347.262970,107.810661 345.956665,105.998085 
	C345.956665,105.998085 345.930573,106.047272 345.466003,105.538429 
	C340.099548,100.807701 333.700409,100.951935 326.359924,105.520203 
	C324.565002,106.637245 322.100250,106.678055 319.678375,106.579323 
	C314.722260,100.757698 309.131256,99.359581 304.138702,102.693398 
	C298.923798,106.175690 297.791687,111.807266 300.985931,118.579353 
	C301.551178,119.777710 302.263153,120.906853 302.302765,122.533226 
	C284.361908,134.783524 266.394470,146.995087 248.487183,159.294235 
	C227.677628,173.586761 206.935852,187.977936 186.136719,202.285706 
	C166.316910,215.919739 146.415619,229.435822 126.643173,243.137970 
	C118.532860,248.758362 116.499619,256.046204 121.496773,264.376556 
	C126.683746,273.023346 132.880798,281.064240 138.858734,289.058380 
	C138.858734,289.058380 138.620483,289.360077 138.889893,290.001678 
	C143.352570,296.501678 147.540329,303.214966 152.365051,309.434113 
	C156.211884,314.392731 161.421219,317.027039 168.781433,314.736389 
	C169.935776,314.172852 171.090134,313.609344 172.379913,313.172302 
	C172.379913,313.172302 172.562424,312.914032 172.769226,312.876892 
z"/>
<path fill="#734483" opacity="1.000000" stroke="none" 
	d="
M246.167313,401.202972 
	C245.086044,401.393341 244.004761,401.583710 242.247223,401.505066 
	C239.497986,400.791656 237.425018,400.347260 235.352036,399.902832 
	C235.352036,399.902863 235.161514,399.874939 235.000702,399.478546 
	C232.023758,393.810944 228.796509,388.712006 226.496826,383.224396 
	C223.697372,376.544128 221.776627,369.500916 219.288284,362.683105 
	C217.592453,358.036774 215.443924,353.556152 213.732849,348.914795 
	C211.228699,342.122284 209.087021,335.193237 206.469742,328.446930 
	C205.549103,326.073883 203.682724,324.067719 202.248199,321.894043 
	C202.248199,321.894043 202.099182,321.770111 202.090820,321.592468 
	C202.082458,321.414856 201.876907,321.175873 201.876907,321.175873 
	C201.677505,320.688965 201.478088,320.202087 201.372009,318.986664 
	C201.622238,310.685730 199.095703,308.343689 190.322754,307.929199 
	C190.322754,307.929199 190.137451,307.906738 189.991470,307.675476 
	C189.239258,307.423859 188.633011,307.403534 188.026779,307.383179 
	C186.622894,307.420044 185.219009,307.456879 183.196960,307.294983 
	C180.362320,308.280426 178.145828,309.464600 175.929337,310.648804 
	C175.929337,310.648804 175.850281,310.838379 175.475861,310.928101 
	C174.365952,311.581421 173.630447,312.144958 172.894928,312.708496 
	C172.894928,312.708496 172.769226,312.876892 172.602539,312.883728 
	C172.435867,312.890564 172.244476,313.045807 172.244476,313.045837 
	C171.090134,313.609344 169.935776,314.172852 168.101929,314.609741 
	C156.133911,311.295929 149.193512,303.344879 143.828781,293.432922 
	C142.867111,291.656128 140.395126,290.696838 138.620483,289.360077 
	C138.620483,289.360077 138.858734,289.058380 138.699585,288.838165 
	C134.164612,281.073151 130.079712,273.338776 125.323997,266.041534 
	C121.278282,259.833771 122.631554,249.727127 128.518646,246.041351 
	C131.860855,243.948883 134.971390,241.487518 138.197662,239.208405 
	C142.109543,236.444962 146.033432,233.698502 150.345016,230.935532 
	C152.162994,230.589478 153.794830,230.587219 154.976868,229.856934 
	C159.709961,226.932663 164.337830,223.832260 168.918839,220.672653 
	C169.806030,220.060760 170.308716,218.891388 171.200928,217.792755 
	C171.936279,217.065689 172.459442,216.525009 173.333496,215.910400 
	C177.107300,213.535019 180.530212,211.233551 184.223984,208.741135 
	C186.089417,207.162247 187.568100,205.604462 189.302322,204.421204 
	C193.107574,201.824921 197.042175,199.418213 201.259644,196.814194 
	C206.281586,194.152405 212.233337,193.207748 214.120728,186.626770 
	C222.347977,180.836304 230.441086,175.390427 238.436768,169.805084 
	C246.417145,164.230423 254.244690,158.435715 262.264832,152.920120 
	C264.238403,151.562851 266.700287,150.915588 269.341736,149.921021 
	C276.606873,150.023224 279.755920,145.578384 281.971161,139.975311 
	C281.980469,139.977631 281.984222,139.959198 282.357361,139.927246 
	C284.826538,138.270920 286.922577,136.646530 289.388062,135.011841 
	C290.496735,134.994736 291.235870,134.987915 292.148682,134.823120 
	C292.549133,134.449615 292.767609,134.225922 292.968262,133.980423 
	C292.958832,133.966797 292.959351,133.933655 293.294556,133.858490 
	C294.740662,132.507812 295.851593,131.232315 297.182678,129.747833 
	C298.271606,129.036072 299.140350,128.533264 300.274536,128.076157 
	C301.681610,126.732826 302.823273,125.343811 303.865906,123.710793 
	C303.564728,122.980423 303.362579,122.494057 303.242096,121.711426 
	C303.416138,118.924400 303.863068,116.383385 303.518677,113.954559 
	C302.989044,110.219261 304.487732,108.102364 307.583466,106.267174 
	C310.689026,104.426178 313.299408,103.959793 316.163971,106.578606 
	C317.086456,107.421936 318.543060,107.680992 319.989014,108.411453 
	C323.548218,108.390221 327.293091,109.061989 330.108704,107.745819 
	C335.366730,105.287941 340.410706,104.382759 345.930573,106.047272 
	C345.930573,106.047272 345.956665,105.998085 346.011505,106.391342 
	C346.736084,108.992813 346.039001,112.281082 350.061249,111.840149 
	C357.271667,121.945869 364.972717,131.746002 371.522949,142.262909 
	C376.017487,149.479156 372.520996,157.516937 364.257477,163.001190 
	C357.066040,167.773956 349.888245,172.581055 342.928314,177.678711 
	C341.271271,178.892334 340.317780,181.237915 339.399719,183.228439 
	C338.794617,184.540436 338.685089,186.140839 338.605499,187.625610 
	C338.119873,196.685455 333.859894,203.330063 326.004303,207.783249 
	C324.565674,208.598816 323.330383,209.767792 321.910553,210.623108 
	C319.203003,212.254181 318.802826,214.310043 319.639618,217.354141 
	C322.717499,228.550583 325.747009,239.772232 328.319336,251.092422 
	C330.954590,262.689575 327.000275,272.097687 317.319885,278.909454 
	C305.356140,287.328003 293.342377,295.683105 281.157043,303.774719 
	C277.198120,306.403656 276.610199,309.017303 278.298950,313.299072 
	C283.360382,326.132111 288.018768,339.123505 292.907654,352.025360 
	C296.846893,362.421234 295.544128,368.742188 286.531158,375.065338 
	C273.785004,384.007507 260.590088,392.310120 247.095215,400.933716 
	C246.603439,400.981323 246.167313,401.202972 246.167313,401.202972 
M277.593933,240.846130 
	C277.268036,241.006241 276.942169,241.166351 275.863739,241.377548 
	C274.666687,242.428741 273.469604,243.479935 271.751709,244.927994 
	C267.740417,247.757828 263.596375,250.424133 259.793762,253.511002 
	C258.553162,254.518112 258.202271,256.621277 257.443390,258.841156 
	C257.754181,259.571869 258.065002,260.302612 258.761047,261.604645 
	C259.038818,262.476746 259.316589,263.348877 259.381592,265.060669 
	C258.277985,269.526642 258.343719,273.469086 264.196289,275.602722 
	C264.998566,277.816498 265.800812,280.030273 266.522339,283.038269 
	C267.536438,288.811127 268.731018,289.516754 273.572021,286.411896 
	C284.416534,279.456696 295.178772,272.369659 305.868866,265.179291 
	C309.651520,262.635010 311.325623,258.867981 309.980530,254.313004 
	C307.871216,247.170120 305.637878,240.061157 303.285858,232.994797 
	C302.792511,231.512573 301.557190,230.277328 300.297699,228.066330 
	C300.188721,227.773819 300.079773,227.481308 299.968048,227.091171 
	C299.968048,227.091171 299.801361,227.019714 299.011047,226.936981 
	C298.236786,227.090500 297.462524,227.244034 295.901794,227.438110 
	C292.454254,227.793167 289.919342,229.292603 288.607391,233.359009 
	C288.226990,233.559128 287.846588,233.759247 286.727173,233.955460 
	C282.418976,234.237900 278.651306,235.253464 277.593933,240.846130 
M316.670135,148.632492 
	C315.795227,149.062866 314.920319,149.493240 313.624298,150.395630 
	C313.269745,150.622253 312.915222,150.848877 312.332428,151.179962 
	C312.187592,151.271606 312.073730,151.392441 311.609680,152.145874 
	C309.847870,153.346863 308.086029,154.547852 305.728271,155.366531 
	C301.260254,153.638000 300.511475,156.586838 299.820526,160.134384 
	C299.820526,160.134384 299.505432,160.238892 298.933014,160.427536 
	C298.329681,160.920670 297.726318,161.413788 296.647583,162.409149 
	C288.979126,167.690201 281.305420,172.963608 273.643341,178.253937 
	C258.043091,189.025330 242.448624,199.805099 226.852631,210.582703 
	C205.252930,225.509216 183.661591,240.447922 162.045975,255.351364 
	C159.063522,257.407684 157.178009,259.974945 157.878174,263.728943 
	C158.601318,267.606171 161.052658,269.825470 165.299347,270.838745 
	C165.831421,271.218414 166.431961,271.995575 166.885193,271.917542 
	C172.746490,270.907928 179.422485,272.150848 183.391129,265.789856 
	C184.207169,264.481903 185.876953,263.667450 187.232285,262.741272 
	C198.181229,255.259338 209.214218,247.898438 220.088318,240.309677 
	C227.437729,235.180725 234.450500,229.566711 241.835175,224.491714 
	C249.453659,219.256073 257.443329,214.561447 265.076935,209.346558 
	C271.218811,205.150711 276.713348,199.886536 283.165314,196.303024 
	C288.414490,193.387543 293.785614,191.172089 297.153259,185.802917 
	C298.059540,184.358002 299.836609,182.964935 301.468201,182.551498 
	C310.416412,180.283981 315.663361,172.427536 323.425446,168.328171 
	C327.885101,165.972900 329.597168,156.380508 326.757355,152.166489 
	C325.869598,150.849091 323.410400,150.590652 320.877594,149.737793 
	C319.569763,149.475784 318.261902,149.213776 316.670135,148.632492 
z"/>
<path fill="#60456A" opacity="1.000000" stroke="none" 
	d="
M149.952118,230.944672 
	C146.033432,233.698502 142.109543,236.444962 138.197662,239.208405 
	C134.971390,241.487518 131.860855,243.948883 128.518646,246.041351 
	C122.631554,249.727127 121.278282,259.833771 125.323997,266.041534 
	C130.079712,273.338776 134.164612,281.073151 138.588272,288.994019 
	C132.880798,281.064240 126.683746,273.023346 121.496773,264.376556 
	C116.499619,256.046204 118.532860,248.758362 126.643173,243.137970 
	C146.415619,229.435822 166.316910,215.919739 186.136719,202.285706 
	C206.935852,187.977936 227.677628,173.586761 248.487183,159.294235 
	C266.394470,146.995087 284.361908,134.783524 302.668518,122.286652 
	C303.034302,122.040077 303.160461,122.007690 303.160461,122.007690 
	C303.362579,122.494057 303.564728,122.980423 303.576660,123.850464 
	C302.260681,125.499580 301.134888,126.765022 300.009094,128.030457 
	C299.140350,128.533264 298.271606,129.036072 296.885162,129.880127 
	C295.231445,131.458801 294.095398,132.696228 292.959351,133.933655 
	C292.959351,133.933655 292.958832,133.966797 292.796204,134.139526 
	C292.407990,134.529175 292.188446,134.752121 291.975037,134.981079 
	C291.235870,134.987915 290.496735,134.994736 289.079651,135.154663 
	C286.262604,136.858246 284.123413,138.408737 281.984222,139.959198 
	C281.984222,139.959198 281.980469,139.977631 281.656616,140.107513 
	C277.780060,144.211716 270.909271,143.948059 268.937653,149.941895 
	C266.700287,150.915588 264.238403,151.562851 262.264832,152.920120 
	C254.244690,158.435715 246.417145,164.230423 238.436768,169.805084 
	C230.441086,175.390427 222.347977,180.836304 213.762360,186.685822 
	C209.126099,190.330261 205.025024,193.632187 200.923950,196.934113 
	C197.042175,199.418213 193.107574,201.824921 189.302322,204.421204 
	C187.568100,205.604462 186.089417,207.162247 183.836105,208.762848 
	C178.113937,208.889664 175.639862,212.570221 172.982605,215.984329 
	C172.459442,216.525009 171.936279,217.065689 170.844925,217.867462 
	C163.501862,222.400604 156.726990,226.672638 149.952118,230.944672 
z"/>
<path fill="#61436C" opacity="1.000000" stroke="none" 
	d="
M202.281952,322.267426 
	C203.682724,324.067719 205.549103,326.073883 206.469742,328.446930 
	C209.087021,335.193237 211.228699,342.122284 213.732849,348.914795 
	C215.443924,353.556152 217.592453,358.036774 219.288284,362.683105 
	C221.776627,369.500916 223.697372,376.544128 226.496826,383.224396 
	C228.796509,388.712006 232.023758,393.810944 234.947510,399.398285 
	C232.899643,397.343842 229.840042,395.331024 228.737198,392.543915 
	C222.200485,376.024109 216.121826,359.323120 209.879654,342.686646 
	C207.370773,336.000031 204.837738,329.322479 202.281952,322.267426 
z"/>
<path fill="#64456F" opacity="1.000000" stroke="none" 
	d="
M303.242096,121.711426 
	C303.160461,122.007690 303.034302,122.040077 302.970825,122.054016 
	C302.263153,120.906853 301.551178,119.777710 300.985931,118.579353 
	C297.791687,111.807266 298.923798,106.175690 304.138702,102.693398 
	C309.131256,99.359581 314.722260,100.757698 319.763428,107.144768 
	C319.817474,107.875923 319.786407,108.041634 319.755341,108.207344 
	C318.543060,107.680992 317.086456,107.421936 316.163971,106.578606 
	C313.299408,103.959793 310.689026,104.426178 307.583466,106.267174 
	C304.487732,108.102364 302.989044,110.219261 303.518677,113.954559 
	C303.863068,116.383385 303.416138,118.924400 303.242096,121.711426 
z"/>
<path fill="#60456A" opacity="1.000000" stroke="none" 
	d="
M138.755188,289.680878 
	C140.395126,290.696838 142.867111,291.656128 143.828781,293.432922 
	C149.193512,303.344879 156.133911,311.295929 167.717224,314.669067 
	C161.421219,317.027039 156.211884,314.392731 152.365051,309.434113 
	C147.540329,303.214966 143.352570,296.501678 138.755188,289.680878 
z"/>
<path fill="#61436C" opacity="1.000000" stroke="none" 
	d="
M319.989014,108.411453 
	C319.786407,108.041634 319.817474,107.875923 319.895996,107.461945 
	C322.100250,106.678055 324.565002,106.637245 326.359924,105.520203 
	C333.700409,100.951935 340.099548,100.807701 345.698303,105.792847 
	C340.410706,104.382759 335.366730,105.287941 330.108704,107.745819 
	C327.293091,109.061989 323.548218,108.390221 319.989014,108.411453 
z"/>
<path fill="#61436C" opacity="1.000000" stroke="none" 
	d="
M190.540161,308.167480 
	C199.095703,308.343689 201.622238,310.685730 201.357605,318.586060 
	C198.858170,314.307159 195.816559,310.349274 190.540161,308.167480 
z"/>
<path fill="#61436C" opacity="1.000000" stroke="none" 
	d="
M349.961304,111.582962 
	C346.039001,112.281082 346.736084,108.992813 346.015076,106.418854 
	C347.262970,107.810661 348.562164,109.568222 349.961304,111.582962 
z"/>
<path fill="#61436C" opacity="1.000000" stroke="none" 
	d="
M176.259705,310.546600 
	C178.145828,309.464600 180.362320,308.280426 182.779205,307.225433 
	C180.849747,308.384521 178.719910,309.414459 176.259705,310.546600 
z"/>
<path fill="#61436C" opacity="1.000000" stroke="none" 
	d="
M235.594238,400.144836 
	C237.425018,400.347260 239.497986,400.791656 241.833328,401.456665 
	C240.009277,401.247131 237.922852,400.816986 235.594238,400.144836 
z"/>
<path fill="#61436C" opacity="1.000000" stroke="none" 
	d="
M173.177734,312.659790 
	C173.630447,312.144958 174.365952,311.581421 175.380524,310.966248 
	C174.926575,311.480103 174.193558,312.045593 173.177734,312.659790 
z"/>
<path fill="#61436C" opacity="1.000000" stroke="none" 
	d="
M188.348969,307.498840 
	C188.633011,307.403534 189.239258,307.423859 189.938660,307.598511 
	C189.578262,307.706757 189.124710,307.660645 188.348969,307.498840 
z"/>
<path fill="#61436C" opacity="1.000000" stroke="none" 
	d="
M246.298706,401.251831 
	C246.167313,401.202972 246.603439,400.981323 246.726715,400.974243 
	C246.778992,401.165222 246.639023,401.276428 246.298706,401.251831 
z"/>
<path fill="#61436C" opacity="1.000000" stroke="none" 
	d="
M201.830460,321.268494 
	C201.876907,321.175873 202.082458,321.414856 202.084702,321.495789 
	C202.086945,321.576691 201.784012,321.361084 201.830460,321.268494 
z"/>
<path fill="#61436C" opacity="1.000000" stroke="none" 
	d="
M172.312195,313.109070 
	C172.244476,313.045807 172.435867,312.890564 172.499146,312.902283 
	C172.562424,312.914032 172.379913,313.172302 172.312195,313.109070 
z"/>
<path fill="#030104" opacity="1.000000" stroke="none" 
	d="
M306.324219,155.748840 
	C308.086029,154.547852 309.847870,153.346863 311.943146,151.840942 
	C312.479858,151.449509 312.574554,151.296005 312.560669,151.075500 
	C312.915222,150.848877 313.269745,150.622253 314.146698,150.146027 
	C315.430756,149.581528 316.192413,149.266647 316.954071,148.951752 
	C318.261902,149.213776 319.569763,149.475784 321.450409,150.055756 
	C327.967529,156.787140 327.710968,161.138214 321.265320,165.556610 
	C300.002441,180.131882 278.749969,194.722427 257.525482,209.353546 
	C230.964569,227.663284 204.489594,246.098633 177.832291,264.266663 
	C173.965485,266.902039 169.290741,268.351929 164.989868,270.350403 
	C161.052658,269.825470 158.601318,267.606171 157.878174,263.728943 
	C157.178009,259.974945 159.063522,257.407684 162.045975,255.351364 
	C183.661591,240.447922 205.252930,225.509216 226.852631,210.582703 
	C242.448624,199.805099 258.043091,189.025330 273.643341,178.253937 
	C281.305420,172.963608 288.979126,167.690201 297.173401,162.091064 
	C298.301300,161.261627 298.903351,160.750259 299.505432,160.238892 
	C299.505432,160.238892 299.820526,160.134384 300.252319,159.961700 
	C302.564178,158.442307 304.444214,157.095581 306.324219,155.748840 
z"/>
<path fill="#020103" opacity="1.000000" stroke="none" 
	d="
M276.616272,241.326477 
	C276.942169,241.166351 277.268036,241.006241 278.079254,240.565796 
	C281.531799,238.176743 284.498993,236.068054 287.466187,233.959366 
	C287.846588,233.759247 288.226990,233.559128 289.161346,233.045288 
	C292.039642,230.953568 294.363953,229.175552 296.688263,227.397552 
	C297.462524,227.244034 298.236786,227.090500 299.360474,227.048889 
	C299.709869,227.160812 299.970795,227.188797 299.970795,227.188797 
	C300.079773,227.481308 300.188721,227.773819 300.399231,228.866058 
	C302.569550,237.665390 304.559479,245.686630 306.744995,253.654221 
	C307.652283,256.961700 307.022705,259.485535 304.150848,261.439270 
	C293.481964,268.697296 282.790619,275.923615 272.197723,283.291260 
	C269.730164,285.007507 268.042603,284.879791 266.603088,282.244049 
	C265.800812,280.030273 264.998566,277.816498 263.958282,274.936462 
	C262.344971,270.920471 260.969666,267.570740 259.594360,264.220978 
	C259.316589,263.348877 259.038818,262.476746 258.583862,261.017822 
	C258.085938,259.695068 257.765198,258.959106 257.444489,258.223175 
	C258.202271,256.621277 258.553162,254.518112 259.793762,253.511002 
	C263.596375,250.424133 267.740417,247.757828 272.344238,244.646759 
	C274.163300,243.352524 275.389771,242.339508 276.616272,241.326477 
z"/>
<path fill="#64456F" opacity="1.000000" stroke="none" 
	d="
M165.144623,270.594574 
	C169.290741,268.351929 173.965485,266.902039 177.832291,264.266663 
	C204.489594,246.098633 230.964569,227.663284 257.525482,209.353546 
	C278.749969,194.722427 300.002441,180.131882 321.265320,165.556610 
	C327.710968,161.138214 327.967529,156.787140 321.846893,150.110596 
	C323.410400,150.590652 325.869598,150.849091 326.757355,152.166489 
	C329.597168,156.380508 327.885101,165.972900 323.425446,168.328171 
	C315.663361,172.427536 310.416412,180.283981 301.468201,182.551498 
	C299.836609,182.964935 298.059540,184.358002 297.153259,185.802917 
	C293.785614,191.172089 288.414490,193.387543 283.165314,196.303024 
	C276.713348,199.886536 271.218811,205.150711 265.076935,209.346558 
	C257.443329,214.561447 249.453659,219.256073 241.835175,224.491714 
	C234.450500,229.566711 227.437729,235.180725 220.088318,240.309677 
	C209.214218,247.898438 198.181229,255.259338 187.232285,262.741272 
	C185.876953,263.667450 184.207169,264.481903 183.391129,265.789856 
	C179.422485,272.150848 172.746490,270.907928 166.885193,271.917542 
	C166.431961,271.995575 165.831421,271.218414 165.144623,270.594574 
z"/>
<path fill="#61436C" opacity="1.000000" stroke="none" 
	d="
M266.562714,282.641174 
	C268.042603,284.879791 269.730164,285.007507 272.197723,283.291260 
	C282.790619,275.923615 293.481964,268.697296 304.150848,261.439270 
	C307.022705,259.485535 307.652283,256.961700 306.744995,253.654221 
	C304.559479,245.686630 302.569550,237.665390 300.582245,229.297028 
	C301.557190,230.277328 302.792511,231.512573 303.285858,232.994797 
	C305.637878,240.061157 307.871216,247.170120 309.980530,254.313004 
	C311.325623,258.867981 309.651520,262.635010 305.868866,265.179291 
	C295.178772,272.369659 284.416534,279.456696 273.572021,286.411896 
	C268.731018,289.516754 267.536438,288.811127 266.562714,282.641174 
z"/>
<path fill="#6C467A" opacity="1.000000" stroke="none" 
	d="
M150.345016,230.935516 
	C156.726990,226.672638 163.501862,222.400604 170.632751,218.053864 
	C170.308716,218.891388 169.806030,220.060760 168.918839,220.672653 
	C164.337830,223.832260 159.709961,226.932663 154.976868,229.856934 
	C153.794830,230.587219 152.162994,230.589478 150.345016,230.935516 
z"/>
<path fill="#6C467A" opacity="1.000000" stroke="none" 
	d="
M269.341736,149.921021 
	C270.909271,143.948059 277.780060,144.211716 281.647339,140.105179 
	C279.755920,145.578384 276.606873,150.023224 269.341736,149.921021 
z"/>
<path fill="#6C467A" opacity="1.000000" stroke="none" 
	d="
M201.259659,196.814209 
	C205.025024,193.632187 209.126099,190.330261 213.585541,186.969299 
	C212.233337,193.207748 206.281586,194.152405 201.259659,196.814209 
z"/>
<path fill="#61436C" opacity="1.000000" stroke="none" 
	d="
M259.487976,264.640808 
	C260.969666,267.570740 262.344971,270.920471 263.772888,274.628479 
	C258.343719,273.469086 258.277985,269.526642 259.487976,264.640808 
z"/>
<path fill="#6C467A" opacity="1.000000" stroke="none" 
	d="
M173.333496,215.910400 
	C175.639862,212.570221 178.113937,208.889664 183.565262,208.953812 
	C180.530212,211.233551 177.107300,213.535019 173.333496,215.910400 
z"/>
<path fill="#61436C" opacity="1.000000" stroke="none" 
	d="
M287.096680,233.957413 
	C284.498993,236.068054 281.531799,238.176743 278.257141,240.356400 
	C278.651306,235.253464 282.418976,234.237900 287.096680,233.957413 
z"/>
<path fill="#64456F" opacity="1.000000" stroke="none" 
	d="
M306.026245,155.557693 
	C304.444214,157.095581 302.564178,158.442307 300.363342,159.838318 
	C300.511475,156.586838 301.260254,153.638000 306.026245,155.557693 
z"/>
<path fill="#61436C" opacity="1.000000" stroke="none" 
	d="
M296.295044,227.417831 
	C294.363953,229.175552 292.039642,230.953568 289.388000,232.812744 
	C289.919342,229.292603 292.454254,227.793167 296.295044,227.417831 
z"/>
<path fill="#6C467A" opacity="1.000000" stroke="none" 
	d="
M282.357361,139.927261 
	C284.123413,138.408737 286.262604,136.858246 288.710175,135.164948 
	C286.922577,136.646530 284.826538,138.270920 282.357361,139.927261 
z"/>
<path fill="#6C467A" opacity="1.000000" stroke="none" 
	d="
M300.274536,128.076141 
	C301.134888,126.765022 302.260681,125.499580 303.675720,124.094467 
	C302.823273,125.343811 301.681610,126.732826 300.274536,128.076141 
z"/>
<path fill="#6C467A" opacity="1.000000" stroke="none" 
	d="
M293.294556,133.858490 
	C294.095398,132.696228 295.231445,131.458801 296.664978,130.089081 
	C295.851593,131.232315 294.740662,132.507812 293.294556,133.858490 
z"/>
<path fill="#61436C" opacity="1.000000" stroke="none" 
	d="
M276.239990,241.352020 
	C275.389771,242.339508 274.163300,243.352524 272.604675,244.448334 
	C273.469604,243.479935 274.666687,242.428741 276.239990,241.352020 
z"/>
<path fill="#64456F" opacity="1.000000" stroke="none" 
	d="
M316.812103,148.792114 
	C316.192413,149.266647 315.430756,149.581528 314.357239,149.910019 
	C314.920319,149.493240 315.795227,149.062866 316.812103,148.792114 
z"/>
<path fill="#61436C" opacity="1.000000" stroke="none" 
	d="
M257.443939,258.532166 
	C257.765198,258.959106 258.085938,259.695068 258.391235,260.732178 
	C258.065002,260.302612 257.754181,259.571869 257.443939,258.532166 
z"/>
<path fill="#64456F" opacity="1.000000" stroke="none" 
	d="
M299.219238,160.333221 
	C298.903351,160.750259 298.301300,161.261627 297.411072,161.839935 
	C297.726318,161.413788 298.329681,160.920670 299.219238,160.333221 
z"/>
<path fill="#6C467A" opacity="1.000000" stroke="none" 
	d="
M292.148682,134.823105 
	C292.188446,134.752121 292.407990,134.529175 292.805664,134.153137 
	C292.767609,134.225922 292.549133,134.449615 292.148682,134.823105 
z"/>
<path fill="#61436C" opacity="1.000000" stroke="none" 
	d="
M299.969421,227.139984 
	C299.970795,227.188797 299.709869,227.160812 299.755615,227.090271 
	C299.801361,227.019714 299.968048,227.091171 299.969421,227.139984 
z"/>
<path fill="#64456F" opacity="1.000000" stroke="none" 
	d="
M312.446533,151.127731 
	C312.574554,151.296005 312.479858,151.449509 312.133698,151.539230 
	C312.073730,151.392441 312.187592,151.271606 312.446533,151.127731 
z"/>
</svg>