<?xml version="1.0" standalone="no"?>
<!DOCTYPE svg PUBLIC "-//W3C//DTD SVG 20010904//EN"
 "http://www.w3.org/TR/2001/REC-SVG-20010904/DTD/svg10.dtd">
<svg version="1.0" xmlns="http://www.w3.org/2000/svg"
 width="16.000000pt" height="14.000000pt" viewBox="0 0 16.000000 14.000000"
 preserveAspectRatio="xMidYMid meet">

<g transform="translate(0.000000,14.000000) scale(0.100000,-0.100000)"
fill="#000000" stroke="none">
<path d="M67 122 c-58 -2 -67 -5 -67 -22 0 -10 5 -22 11 -25 6 -4 7 -19 4 -36
-6 -25 -3 -29 14 -29 11 0 22 9 26 20 3 11 15 20 25 20 11 0 23 6 27 14 4 8
17 15 28 18 12 2 20 11 20 22 0 23 -1 23 -88 18z m63 -22 c0 -5 -25 -10 -55
-10 -30 0 -55 5 -55 10 0 6 25 10 55 10 30 0 55 -4 55 -10z m-35 -30 c3 -5 -3
-10 -15 -10 -12 0 -18 5 -15 10 3 6 10 10 15 10 5 0 12 -4 15 -10z"/>
</g>
</svg>
